<svg width="760" height="245" viewBox="0 0 760 245" fill="none" xmlns="http://www.w3.org/2000/svg">
<path d="M110.478 82.7224C115.983 82.7224 120.445 78.2599 120.445 72.7551C120.445 67.2503 115.983 62.7877 110.478 62.7877C104.973 62.7877 100.51 67.2503 100.51 72.7551C100.51 78.2599 104.973 82.7224 110.478 82.7224Z" fill="#F8B500"/>
<path d="M40.7064 82.7224C46.2112 82.7224 50.6737 78.2599 50.6737 72.7551C50.6737 67.2503 46.2112 62.7877 40.7064 62.7877C35.2015 62.7877 30.739 67.2503 30.739 72.7551C30.739 78.2599 35.2015 82.7224 40.7064 82.7224Z" fill="#F8B500"/>
<path d="M88.0512 157.478C88.0512 149.254 94.7792 142.527 103.002 142.527V167.445C103.002 193.609 124.183 214.79 150.347 214.79V22.9184C150.347 22.9184 125.429 0.491821 75.3428 0.491821C25.5061 0.491821 0.836914 22.9184 0.836914 22.9184V140.035C0.836914 197.845 47.6834 244.692 105.494 244.692H150.347V229.741C115.96 229.741 88.0512 201.832 88.0512 167.445V157.478ZM75.3428 125.084C38.4637 125.084 15.7879 105.149 15.7879 92.6898V32.8857C73.1002 32.8857 73.1002 95.1816 75.592 102.657C78.0839 95.1816 78.0839 32.8857 135.396 32.8857V92.6898C135.396 102.906 112.471 125.084 75.3428 125.084Z" fill="#F8B500"/>
<path d="M248.138 174.136C239.429 174.136 231.761 172.432 225.134 169.024C218.602 165.616 213.538 160.977 209.94 155.108C206.343 149.144 204.544 142.375 204.544 134.802C204.544 127.134 206.296 120.365 209.798 114.496C213.396 108.532 218.271 103.893 224.424 100.58C230.578 97.172 237.536 95.468 245.298 95.468C252.777 95.468 259.498 97.0773 265.462 100.296C271.521 103.42 276.302 107.964 279.804 113.928C283.307 119.797 285.058 126.85 285.058 135.086C285.058 135.938 285.011 136.932 284.916 138.068C284.822 139.109 284.727 140.103 284.632 141.05H222.578V128.128H272.988L264.468 131.962C264.468 127.986 263.664 124.531 262.054 121.596C260.445 118.661 258.22 116.389 255.38 114.78C252.54 113.076 249.227 112.224 245.44 112.224C241.654 112.224 238.293 113.076 235.358 114.78C232.518 116.389 230.294 118.709 228.684 121.738C227.075 124.673 226.27 128.175 226.27 132.246V135.654C226.27 139.819 227.17 143.511 228.968 146.73C230.862 149.854 233.465 152.268 236.778 153.972C240.186 155.581 244.162 156.386 248.706 156.386C252.777 156.386 256.327 155.771 259.356 154.54C262.48 153.309 265.32 151.463 267.876 149.002L279.662 161.782C276.16 165.758 271.758 168.835 266.456 171.012C261.155 173.095 255.049 174.136 248.138 174.136ZM299.806 173V67.636H321.958V173H299.806ZM380.431 174.136C371.722 174.136 364.054 172.432 357.427 169.024C350.895 165.616 345.831 160.977 342.233 155.108C338.636 149.144 336.837 142.375 336.837 134.802C336.837 127.134 338.589 120.365 342.091 114.496C345.689 108.532 350.564 103.893 356.717 100.58C362.871 97.172 369.829 95.468 377.591 95.468C385.07 95.468 391.791 97.0773 397.755 100.296C403.814 103.42 408.595 107.964 412.097 113.928C415.6 119.797 417.351 126.85 417.351 135.086C417.351 135.938 417.304 136.932 417.209 138.068C417.115 139.109 417.02 140.103 416.925 141.05H354.871V128.128H405.281L396.761 131.962C396.761 127.986 395.957 124.531 394.347 121.596C392.738 118.661 390.513 116.389 387.673 114.78C384.833 113.076 381.52 112.224 377.733 112.224C373.947 112.224 370.586 113.076 367.651 114.78C364.811 116.389 362.587 118.709 360.977 121.738C359.368 124.673 358.563 128.175 358.563 132.246V135.654C358.563 139.819 359.463 143.511 361.261 146.73C363.155 149.854 365.758 152.268 369.071 153.972C372.479 155.581 376.455 156.386 380.999 156.386C385.07 156.386 388.62 155.771 391.649 154.54C394.773 153.309 397.613 151.463 400.169 149.002L411.955 161.782C408.453 165.758 404.051 168.835 398.749 171.012C393.448 173.095 387.342 174.136 380.431 174.136ZM451.445 173L419.353 96.604H442.215L468.911 162.35H457.551L485.241 96.604H506.541L474.307 173H451.445ZM534.37 173L502.278 96.604H525.14L551.836 162.35H540.476L568.166 96.604H589.466L557.232 173H534.37ZM632.777 174.136C624.636 174.136 617.394 172.432 611.051 169.024C604.803 165.616 599.833 160.977 596.141 155.108C592.544 149.144 590.745 142.375 590.745 134.802C590.745 127.134 592.544 120.365 596.141 114.496C599.833 108.532 604.803 103.893 611.051 100.58C617.394 97.172 624.636 95.468 632.777 95.468C640.824 95.468 648.019 97.172 654.361 100.58C660.704 103.893 665.674 108.485 669.271 114.354C672.869 120.223 674.667 127.039 674.667 134.802C674.667 142.375 672.869 149.144 669.271 155.108C665.674 160.977 660.704 165.616 654.361 169.024C648.019 172.432 640.824 174.136 632.777 174.136ZM632.777 155.96C636.469 155.96 639.783 155.108 642.717 153.404C645.652 151.7 647.971 149.286 649.675 146.162C651.379 142.943 652.231 139.157 652.231 134.802C652.231 130.353 651.379 126.566 649.675 123.442C647.971 120.318 645.652 117.904 642.717 116.2C639.783 114.496 636.469 113.644 632.777 113.644C629.085 113.644 625.772 114.496 622.837 116.2C619.903 117.904 617.536 120.318 615.737 123.442C614.033 126.566 613.181 130.353 613.181 134.802C613.181 139.157 614.033 142.943 615.737 146.162C617.536 149.286 619.903 151.7 622.837 153.404C625.772 155.108 629.085 155.96 632.777 155.96Z" fill="white"/>
</svg>
